<svg xmlns="http://www.w3.org/2000/svg" xmlns:xlink="http://www.w3.org/1999/xlink" viewBox="0,0,256,256" width="32px" height="32px" fill-rule="nonzero"><g fill="#000000" fill-rule="nonzero" stroke="none" stroke-width="1" stroke-linecap="butt" stroke-linejoin="miter" stroke-miterlimit="10" stroke-dasharray="" stroke-dashoffset="0" font-family="none" font-weight="none" font-size="none" text-anchor="none" style="mix-blend-mode: normal"><g transform="scale(8,8)"><path d="M16,2c-5.87109,0 -9.26172,3.09766 -10.82422,5.03125c-0.19141,-0.08203 -0.38672,-0.16016 -0.59766,-0.20312c-0.52734,-0.10937 -1.3125,-0.03125 -1.77344,0.55469c-0.39453,0.50391 -0.52734,1.04297 -0.64062,1.65625c-0.11328,0.60938 -0.16406,1.28516 -0.16406,1.96094c0,0.67578 0.05078,1.35156 0.16406,1.96484c0.11328,0.60938 0.24609,1.14844 0.64063,1.65625h0.00391c0.30859,0.39063 0.72656,0.46484 0.99609,0.47266c0.07031,0.00391 0.12891,-0.00781 0.19531,-0.01172v2.91797h2v-3.70312c0.36719,-0.22656 0.72266,-0.48437 1.02344,-0.79687c0.35547,-0.35937 0.72656,-0.78906 0.72656,-1.5v-2c0,-0.66406 -0.30078,-1.08594 -0.61719,-1.48437c-0.10547,-0.12891 -0.23047,-0.25 -0.35156,-0.37109c1.27734,-1.60938 4.07813,-4.14453 9.21875,-4.14453c5.01953,0 7.80859,2.41797 9.12891,4.03125c-0.16406,0.14844 -0.32422,0.29688 -0.46484,0.46094c-0.33984,0.39453 -0.66406,0.81641 -0.66406,1.50781v2c0,0.74219 0.40234,1.16406 0.77734,1.52344c0.35938,0.34766 0.78516,0.63281 1.22266,0.87891v3.59766h2v-2.91406c0.04688,0 0.08594,0.00781 0.13672,0.00781c0.26953,-0.00781 0.67188,-0.0625 0.99609,-0.44922c0.42188,-0.5 0.56641,-1.05078 0.69141,-1.66797c0.12109,-0.61719 0.17578,-1.29687 0.17578,-1.97656c0,-0.67969 -0.05469,-1.35937 -0.17578,-1.97656c-0.125,-0.61719 -0.26953,-1.16797 -0.69141,-1.66797c-0.48828,-0.57812 -1.25,-0.63672 -1.78906,-0.53125c-0.19141,0.03906 -0.36719,0.10938 -0.54687,0.17578c-1.57422,-1.9375 -4.95703,-5 -10.79687,-5zM10.99609,7c-0.87109,0 -1.78906,0.25 -2.66797,1.01172c-0.45703,0.39844 -0.41797,1.0625 0,0.85547c0.74609,-0.35937 1.41016,-0.53516 2,-0.53516c1.79688,0 2.6875,2.10156 2.96484,2.375c0.39063,0.39063 1.02344,0.39063 1.41406,0c0.39063,-0.39062 0.39063,-1.02344 0,-1.41406c-0.24219,-0.24219 -1.41797,-2.29297 -3.71094,-2.29297zM21.00391,7c-2.29297,0 -3.46875,2.05078 -3.71094,2.29297c-0.39062,0.39063 -0.39062,1.02344 0,1.41406c0.39063,0.39063 1.02344,0.39063 1.41406,0c0.27734,-0.27344 1.16797,-2.375 2.96484,-2.375c0.58984,0 1.25391,0.17578 2,0.53516c0.41797,0.20703 0.45703,-0.45703 0,-0.85547c-0.87891,-0.76172 -1.79687,-1.01172 -2.66797,-1.01172zM27.66016,8.81641c0.05078,0.10547 0.13281,0.25 0.19922,0.59766c0.08984,0.44531 0.14063,1.01563 0.14063,1.58594c0,0.57031 -0.05078,1.14063 -0.14062,1.58594c-0.04297,0.23047 -0.07812,0.25781 -0.12891,0.39844c-0.21484,-0.07422 -0.45312,-0.16016 -0.71484,-0.30469c-0.33594,-0.18359 -0.66406,-0.41406 -0.85547,-0.60156c-0.19141,-0.18359 -0.16016,-0.32031 -0.16016,-0.07812v-2c0,0.19141 0.00391,0.00391 0.18359,-0.20312c0.17969,-0.21094 0.46875,-0.46484 0.76953,-0.65625c0.27344,-0.17578 0.53906,-0.28125 0.70703,-0.32422zM4.30469,8.85156c0.14844,0.05078 0.33594,0.12109 0.55469,0.27344c0.27734,0.1875 0.54688,0.4375 0.71094,0.64453c0.16797,0.20703 0.17969,0.39453 0.17969,0.23047v2c0,-0.21094 0.02344,-0.07812 -0.15625,0.10547c-0.17578,0.17969 -0.47656,0.40625 -0.78516,0.58594c-0.21094,0.125 -0.38672,0.1875 -0.56641,0.26172c-0.04687,-0.13672 -0.07422,-0.14844 -0.10937,-0.35547c-0.08594,-0.44922 -0.13281,-1.02344 -0.13281,-1.59766c0,-0.57422 0.04688,-1.14844 0.13281,-1.60156c0.05859,-0.31641 0.12109,-0.42187 0.17188,-0.54687zM11.5,11.48047c-1.07422,0 -2.5,0.53516 -2.5,1.80078c0,1.25781 1.35938,0.46094 2.43359,0.46094c1.07031,0 2.56641,0.72266 2.56641,-0.25c0,-0.97266 -1.42578,-2.01172 -2.5,-2.01172zM20.5,11.48438c-1.07422,-0.00391 -2.5,1.03516 -2.5,2.00781c0,0.97266 1.49609,0.25 2.56641,0.25c1.07422,0 2.43359,0.79688 2.43359,-0.46094c0,-1.26562 -1.42578,-1.79687 -2.5,-1.79687zM9,16c-0.94922,0.625 -2,1.77734 -2,3c0,1.5 1.24609,3.06641 2.71094,3.70313c1.17188,0.67578 3.10547,1.29688 6.28906,1.29688c3.18359,0 5.11719,-0.62109 6.29297,-1.29687c1.46094,-0.63672 2.70703,-2.20312 2.70703,-3.70312c0,-1.22266 -1.05078,-2.375 -2,-3c1,2 1,4 -2,4c-0.39844,0 -0.66797,-0.00781 -1,-0.18359c-0.39062,-0.42969 -0.73047,-1.01172 -1,-1.81641c-2,2 -4,2 -6,0c-0.30469,0.91406 -0.79687,1.54688 -1.35937,1.98828c-3.62891,-0.12109 -3.60937,-2.05078 -2.64062,-3.98828zM8,24c0,1.31641 0.79688,2.25781 1.52344,2.60938c0.33594,0.16406 0.625,0.23047 0.85547,0.27734c0.125,0.21484 0.17969,0.35156 0.45313,0.71484c0.22266,0.29297 0.48438,0.59766 0.81641,0.86719c0.33203,0.26563 0.76563,0.53125 1.35156,0.53125h6c0.58594,0 1.01953,-0.26562 1.35156,-0.53125c0.33203,-0.26953 0.59375,-0.57422 0.81641,-0.86719c0.28906,-0.38672 0.35938,-0.54687 0.47656,-0.75781c0.27734,-0.03906 0.39453,0.00391 0.80469,-0.19922c0.73828,-0.37109 1.55078,-1.3125 1.55078,-2.64453h-2c0,0.66797 -0.1875,0.72656 -0.44922,0.85547c-0.25781,0.12891 -0.55078,0.14453 -0.55078,0.14453h-0.61328l-0.27734,0.54688c0,0 -0.22266,0.43359 -0.53906,0.85156c-0.15625,0.20703 -0.33594,0.40234 -0.47266,0.50781c-0.13281,0.10938 -0.19141,0.09375 -0.09766,0.09375h-6c0.09375,0 0.03516,0.01563 -0.09766,-0.09375c-0.13672,-0.10547 -0.31641,-0.30078 -0.47266,-0.50781c-0.31641,-0.41797 -0.53906,-0.85156 -0.53906,-0.85156l-0.07422,-0.14062l-0.10937,-0.11328c-0.30078,-0.30078 -0.40625,-0.25391 -0.48437,-0.27734c-0.07812,-0.01953 -0.125,-0.02734 -0.16406,-0.03125c-0.08594,-0.01562 -0.15234,-0.02734 -0.23047,-0.04297c-0.14844,-0.02734 -0.30469,-0.06641 -0.42578,-0.12891c-0.24609,-0.11719 -0.40234,-0.12891 -0.40234,-0.8125z"></path></g></g></svg>